#!OML:ASF X:\für Bonn\!DataBase\2005_08_10_Bjorn_Final\c3d\bjorn.ASF
:FULLY-SPECIFIED
:DEGREES
110
root 0.865447 19.5928 4.22231 -205.583 -45.3838 -153.022
lowerback 39.6263 -0.860719 -3.34134
upperback 19.414 -7.33849 -2.31121
thorax 2.31875 -5.80999 1.48243
lowerneck -9.45491 -8.58867 -4.61775
upperneck 3.07068 -15.1858 29.0074
head 5.4058 -7.34322 8.58134
rclavicle 1.20861e-013 -5.725e-014
rhumerus -49.4329 -8.11506 -83.6551
rradius 25.3968
rwrist 20.5625
rhand -8.95416 12.6825
rfingers 7.12502
rthumb 16.9906 -16.5944
lclavicle 1.20861e-013 -5.725e-014
lhumerus 68.1728 -34.2563 76.9998
lradius 97.1132
lwrist -2.89064
lhand -44.2222 -21.5111
lfingers 7.12502
lthumb -17.0351 7.76199
rfemur -97.3765 -7.75575 21.4455
rtibia 124.617
rfoot 3.67854 16.0918
rtoes -20.0626
lfemur -9.83193 -12.033 1.09414
ltibia 22.1577
lfoot 4.52734 -23.3409
ltoes 11.1497
111
root 0.865956 19.5847 4.22657 -205.543 -45.3106 -153.067
lowerback 39.7027 -0.776743 -3.46871
upperback 19.3961 -7.28845 -2.22586
thorax 2.29776 -5.80447 1.62517
lowerneck -9.43539 -8.60007 -4.60491
upperneck 3.00689 -15.1547 28.8957
head 5.36388 -7.33202 8.54523
rclavicle 2.8625e-014 6.99722e-014
rhumerus -49.3275 -7.96714 -83.5725
rradius 25.2139
rwrist 20.7997
rhand -8.79826 12.3988
rfingers 7.12502
rthumb 17.1406 -16.8651
lclavicle 2.8625e-014 6.99722e-014
lhumerus 67.924 -34.1964 77.3716
lradius 97.3174
lwrist -2.89215
lhand -44.5844 -21.6846
lfingers 7.12502
lthumb -17.3837 7.55804
rfemur -97.3525 -7.52915 21.6579
rtibia 124.439
rfoot 3.8734 16.093
rtoes -20.1981
lfemur -9.94606 -12.0763 1.06434
ltibia 22.4229
lfoot 4.31715 -23.2626
ltoes 11.0941
112
root 0.865204 19.5777 4.22999 -205.476 -45.2419 -153.163
lowerback 39.7383 -0.697165 -3.60022
upperback 19.3906 -7.24453 -2.14541
thorax 2.30223 -5.80324 1.76292
lowerneck -9.47757 -8.62816 -4.70993
upperneck 2.99521 -15.1594 28.8544
head 5.37259 -7.32849 8.54631
rclavicle -1.39944e-013 -1.33583e-013
rhumerus -49.198 -7.82236 -83.4939
rradius 25.0611
rwrist 21.0891
rhand -8.73629 12.1372
rfingers 7.12502
rthumb 17.2003 -17.1215
lclavicle -1.39944e-013 -1.33583e-013
lhumerus 67.6413 -34.1419 77.796
lradius 97.5098
lwrist -2.8892
lhand -44.989 -21.8995
lfingers 7.12502
lthumb -17.7731 7.30831
rfemur -97.257 -7.31674 21.8317
rtibia 124.25
rfoot 4.10527 16.0908
rtoes -20.1707
lfemur -10.0251 -12.1252 0.98838
ltibia 22.6505
lfoot 4.08422 -23.149
ltoes 10.9044
113
root 0.862705 19.5718 4.23471 -205.365 -45.1383 -153.299
lowerback 39.7087 -0.639859 -3.70956
upperback 19.3829 -7.21282 -2.08614
thorax 2.31855 -5.80302 1.86792
lowerneck -9.48362 -8.65059 -4.84477
upperneck 2.96705 -15.1365 28.7839
head 5.36371 -7.31448 8.54797
rclavicle 9.22361e-014 3.49861e-014
rhumerus -49.0491 -7.70725 -83.3836
rradius 24.9148
rwrist 21.4572
rhand -8.77418 11.9759
rfingers 7.12502
rthumb 17.1638 -17.2861
lclavicle 9.22361e-014 3.49861e-014
lhumerus 67.2581 -34.0584 78.3114
lradius 97.6931
lwrist -2.89566
lhand -45.3676 -22.044
lfingers 7.12502
lthumb -18.1374 7.13036
rfemur -97.1488 -7.06209 21.9901
rtibia 124.055
rfoot 4.27074 16.1544
rtoes -20.4258
lfemur -10.0708 -12.1959 0.8856
ltibia 22.8402
lfoot 3.75701 -23.0046
ltoes 10.4623
114
root 0.859202 19.5689 4.23862 -205.262 -45.0204 -153.449
lowerback 39.6332 -0.599336 -3.79549
upperback 19.3872 -7.19192 -2.03629
thorax 2.35871 -5.80678 1.95078
lowerneck -9.52514 -8.68003 -5.0634
upperneck 2.96369 -15.1299 28.7662
head 5.38418 -7.30372 8.57858
rclavicle 5.40694e-014 8.5875e-014
rhumerus -48.8907 -7.56035 -83.3029
rradius 24.8338
rwrist 21.7338
rhand -8.81397 11.8736
rfingers 7.12502
rthumb 17.1255 -17.3916
lclavicle 5.40694e-014 8.5875e-014
lhumerus 66.8435 -33.9467 78.8208
lradius 97.9024
lwrist -2.84571
lhand -45.7497 -22.0743
lfingers 7.12502
lthumb -18.5049 7.06551
rfemur -96.9855 -6.79886 22.1313
rtibia 123.867
rfoot 4.51176 16.2617
rtoes -20.5156
lfemur -10.0651 -12.2673 0.773544
ltibia 22.9787
lfoot 3.50063 -22.8116
ltoes 10.2225
115
root 0.854912 19.5658 4.24343 -205.143 -44.9085 -153.627
lowerback 39.4974 -0.591271 -3.81264
upperback 19.4071 -7.18398 -2.02784
thorax 2.42257 -5.80855 1.95528
lowerneck -9.59649 -8.70561 -5.27803
upperneck 2.99668 -15.1349 28.7701
head 5.42534 -7.29357 8.61333
rclavicle -8.90555e-014 -9.85972e-014
rhumerus -48.7249 -7.54978 -83.2041
rradius 24.7439
rwrist 22.0701
rhand -8.90023 11.9465
rfingers 7.12502
rthumb 17.0425 -17.3259
lclavicle -8.90555e-014 -9.85972e-014
lhumerus 66.3678 -33.8425 79.3213
lradius 98.1724
lwrist -2.7432
lhand -46.0253 -22.0372
lfingers 7.12502
lthumb -18.77 7.07723
rfemur -96.7866 -6.5734 22.2352
rtibia 123.677
rfoot 4.84035 16.337
rtoes -20.1734
lfemur -10.0355 -12.3548 0.638672
ltibia 23.0831
lfoot 3.292 -22.5998
ltoes 9.98269
